<svg xmlns="http://www.w3.org/2000/svg" width="56" height="32" viewBox="0 0 56 32" fill="none"><g clip-path="url(#clip0_1102_690)"><path d="M20.3094 0.000876975C26.1924 0.000876975 43.4469 0.000876975 49.3301 0.000876975C51.8246 0.000876975 53.3093 1.39573 53.1816 3.88459C53.0535 6.37978 53.4569 8.70795 54.5706 10.9412C55.0655 11.9342 55.4402 12.9878 55.8539 14.02C55.9398 14.2328 55.9857 14.4595 55.9891 14.6889C55.9988 18.7014 56.0023 22.714 55.9997 26.7268C55.9997 28.4364 55.2427 29.194 53.5388 29.1988C52.4925 29.2012 51.4453 29.1789 50.4003 29.2178C50.1759 29.2259 49.8782 29.3936 49.7523 29.5796C47.5782 32.8091 43.542 32.8052 41.3719 29.5714C41.2466 29.3848 40.9401 29.2148 40.7169 29.2139C36.508 29.1931 20.9278 29.1925 16.7189 29.2172C16.4839 29.2172 16.1639 29.421 16.0289 29.6254C13.9569 32.7696 9.7531 32.7901 7.73997 29.6344C7.51442 29.2808 7.27225 29.1922 6.89451 29.1955C5.38293 29.2091 3.87165 29.2027 2.36007 29.2009C0.84849 29.1991 0.0350266 28.387 0.0307993 26.8764C0.0187211 22.8175 0 18.7592 0 14.701C0 10.5936 0.0187211 6.48649 0.0317051 2.3791C0.0368383 0.784674 0.827957 0.00328866 2.45035 0.00268574C8.40347 -0.000127892 14.3565 -0.000730813 20.3094 0.000876975ZM44.8353 8.30098C44.8353 8.64314 44.8353 8.89215 44.8353 9.14115C44.8473 11.0645 44.8784 12.9878 44.8597 14.9111C44.8549 15.4218 45.0409 15.6346 45.5059 15.8034C47.7023 16.5981 49.8842 17.4334 52.0722 18.2504C52.9059 18.5618 53.7435 18.8632 54.6844 19.2075C54.6844 18.3565 54.6974 17.6399 54.6811 16.9255C54.663 16.1191 54.8018 15.2508 54.5503 14.5192C53.8691 12.5329 53.0258 10.6002 52.2204 8.65912C52.1534 8.49784 51.8901 8.31786 51.7162 8.31605C49.4657 8.29375 47.2144 8.30158 44.8353 8.30158V8.30098ZM16.7352 8.34228V15.2831H23.7034V8.34228H16.7352ZM15.3392 15.2946V8.34831H8.39672V15.2946H15.3392ZM43.4526 15.3063V8.3459H25.1307V15.3063H43.4526ZM1.39503 8.34168V15.2768H6.96124V8.34319L1.39503 8.34168ZM8.3783 6.9206H15.3353V1.40206H8.3783V6.9206ZM23.6985 6.92904V1.38759H16.7602V6.92904H23.6985ZM25.124 6.9209H43.4526V1.40146H25.124V6.9209ZM44.8869 1.35926V6.92783H51.8454C51.8454 5.61919 51.9007 4.34944 51.8264 3.08753C51.7748 2.21329 50.9393 1.40357 50.0684 1.37554C48.3585 1.32037 46.6464 1.35926 44.8869 1.35926V1.35926ZM1.37751 6.92029H6.96093V1.3472C5.29596 1.3472 3.67568 1.32007 2.05812 1.37734C1.8241 1.38518 1.41586 1.78884 1.40771 2.02066C1.35034 3.63619 1.37751 5.25473 1.37751 6.92029ZM15.3761 27.1549C15.3824 25.2198 13.8343 23.6477 11.9106 23.6357C9.92763 23.6236 8.35747 25.1629 8.34751 27.1284C8.33815 29.0577 9.88747 30.6335 11.8139 30.6515C13.7851 30.6702 15.3694 29.1144 15.3761 27.1549ZM45.5666 23.6329C43.6341 23.6263 42.0585 25.1803 42.051 27.1025C42.0428 29.0776 43.5954 30.6488 45.5591 30.6522C47.4916 30.6555 49.0693 29.0999 49.0792 27.1808C49.0898 25.2099 47.5353 23.6396 45.5666 23.6329Z" fill="#FF3032"></path><path d="M9.80576 27.0844C9.842 25.9645 10.775 25.0646 11.8853 25.0803C13.0297 25.0954 13.9606 26.0639 13.9208 27.1977C13.913 27.4705 13.851 27.7389 13.7384 27.9875C13.6257 28.236 13.4647 28.4597 13.2646 28.6456C13.0645 28.8314 12.8294 28.9756 12.573 29.0699C12.3165 29.1642 12.0439 29.2066 11.7709 29.1946C10.6527 29.1467 9.76953 28.1983 9.80576 27.0844ZM11.9958 26.3066L11.6812 26.3175C11.5018 26.5939 11.2056 26.8562 11.1703 27.1495C11.1156 27.6053 11.478 27.9381 11.9128 27.8221C12.1803 27.7506 12.5167 27.3611 12.5336 27.0952C12.5505 26.8453 12.19 26.5704 11.9958 26.3066V26.3066Z" fill="#FF3032"></path><path d="M47.5205 27.1057C47.5238 27.3785 47.473 27.6493 47.371 27.9024C47.269 28.1555 47.1178 28.3859 46.9263 28.5804C46.7347 28.7749 46.5064 28.9297 46.2547 29.0358C46.0029 29.1418 45.7326 29.1971 45.4594 29.1985C44.3509 29.2039 43.4158 28.2878 43.3958 27.1763C43.3753 26.0407 44.3213 25.0799 45.4582 25.082C46.5718 25.0838 47.5075 26.0021 47.5205 27.1057ZM46.287 27.2945C46.287 27.1871 46.2855 27.0801 46.2846 26.9728C46.0129 26.7895 45.7583 26.4905 45.4669 26.4495C45.014 26.3859 44.6668 26.7301 44.7758 27.173C44.8419 27.4416 45.2205 27.7846 45.4857 27.8093C45.7345 27.832 46.0177 27.4808 46.287 27.2945Z" fill="#FF3032"></path></g><defs><clipPath id="clip0_1102_690"><rect width="56" height="32" fill="white"></rect></clipPath></defs></svg>