<svg xmlns="http://www.w3.org/2000/svg" width="24" height="30" viewBox="0 0 24 30" fill="none"><path d="M5.59813 3.98909C5.59813 2.39347 6.79591 1.13979 8.32025 1.13979C9.8446 1.13979 11.0424 2.39353 11.0424 3.98909V6.72445C11.6956 6.04061 12.1312 5.01482 12.1312 3.98909C12.1313 1.82357 10.3891 0 8.32031 0C6.25151 0 4.50928 1.82357 4.50928 3.98909C4.50928 5.12882 4.94482 6.04061 5.59813 6.72445V3.98909Z" fill="#FF3032"></path><path d="M21.3867 10.2574C20.5157 10.2574 19.7534 11.0552 19.7534 11.967V14.4744V14.8163H18.6646V12.195V10.8273C18.6646 9.91551 17.9023 9.11767 17.0312 9.11767C16.1601 9.11767 15.3979 9.91551 15.3979 10.8273V11.967V13.6766H14.309V11.967V9.68751C14.309 8.77572 13.5468 7.97788 12.6757 7.97788C11.8046 7.97788 11.0424 8.77572 11.0424 9.68751V11.853V14.8163H9.95358V11.967V3.98892C9.95358 3.07714 9.19135 2.2793 8.32026 2.2793C7.44916 2.2793 6.68693 3.07714 6.68693 3.98892V15.7281C4.40028 13.2207 1.46038 10.4853 0.262656 11.739C-0.935123 12.9928 2.1137 16.4119 6.3603 23.9342C8.32025 27.3533 10.7158 29.6328 14.8534 29.6328C19.3177 29.6328 23.0199 25.7577 23.0199 21.0848V17.3237V11.967C23.0201 11.0552 22.2578 10.2574 21.3867 10.2574Z" fill="#FF3032"></path></svg>