<svg xmlns="http://www.w3.org/2000/svg" width="32" height="32" viewBox="0 0 32 32" fill="none"><path d="M7.3291 18.6251L13.3748 24.6705L24.467 13.5788L18.4216 7.53331L7.3291 18.6251ZM31.4972 10.3223L28.9249 7.74982C28.435 8.0167 27.8737 8.16887 27.2769 8.16887C25.3735 8.16887 23.8307 6.6261 23.8307 4.72318C23.8307 4.12643 23.9832 3.56509 24.2501 3.07523L21.6775 0.502709C21.0072 -0.16757 19.9114 -0.16757 19.2411 0.502709L0.502473 19.2416C-0.167491 19.9115 -0.167491 21.0076 0.502473 21.6776L3.07544 24.2501C3.56497 23.9832 4.12668 23.8314 4.72345 23.8314C6.62679 23.8314 8.16928 25.3735 8.16928 27.2767C8.16928 27.8735 8.01711 28.4348 7.74987 28.925L10.3225 31.4975C10.9928 32.1675 12.089 32.1675 12.7593 31.4975L31.4979 12.759C32.1675 12.0888 32.1675 10.9926 31.4972 10.3223ZM13.3748 27.4357L4.56447 18.6251L18.4223 4.76846L27.2323 13.5788L13.3748 27.4357Z" fill="#FF3032"></path></svg>